<?xml version="1.0" encoding="utf-8"?>
<!-- Generator: Adobe Illustrator 27.2.0, SVG Export Plug-In . SVG Version: 6.00 Build 0)  -->
<svg version="1.1" id="tradRoutesSettingIcon" xmlns="http://www.w3.org/2000/svg" xmlns:xlink="http://www.w3.org/1999/xlink"
	 x="0px" y="0px" viewBox="0 0 90 90" style="enable-background:new 0 0 90 90;" xml:space="preserve">
<g>
	<path d="M72,0H18C8.1,0,0,8.1,0,18v54c0,9.9,8.1,18,18,18h54c9.9,0,18-8.1,18-18V18C90,8.1,81.9,0,72,0z M11.8,26.5
		c4-0.5,9.9,8.8,9.9,8.8l54.1-11.9l1.6,6.7L23.7,41.8l3.6,11.9l-12.8,3.9c0,0-4.3-16.3-5.2-19.8C8.6,34.4,10.2,26.6,11.8,26.5z
		 M83.1,57.2c-0.6,2.3-9.7,8-12.4,7.3C68.2,63.8,63.9,54,63.9,54s-20.9,6.6-28.7,8.1c-5.6,1.1-25.6,4.5-25.6,4.5
		c5.3-7,67.8-23.9,68.7-24.1C79.1,42.4,83.7,55,83.1,57.2z"/>
	<path d="M72.8,49.3c-4.5,1.4-4.1,10.7,2.2,9.1C81.5,56.8,77.4,48,72.8,49.3z"/>
</g>
</svg>
