<?xml version="1.0" encoding="utf-8"?>
<!-- Generator: Adobe Illustrator 27.2.0, SVG Export Plug-In . SVG Version: 6.00 Build 0)  -->
<svg version="1.1" id="tradRoutesSettingIcon" xmlns="http://www.w3.org/2000/svg" xmlns:xlink="http://www.w3.org/1999/xlink"
	 x="0px" y="0px" viewBox="0 0 90 90" style="enable-background:new 0 0 90 90;" xml:space="preserve">
<g>
	<path d="M24.9,51.2c-0.1,0-9.3,22.5-9.3,22.8c0,0.3,12.9-18.2,12.9-18.2L24.9,51.2z"/>
	<path d="M47.5,65.7l-6.8,13.4l-4.3-19.7l-6.3,2.5L14.9,81.8l-1,7.7c1.3,0.3,2.7,0.5,4.1,0.5h39.7L47.5,65.7z"/>
	<polygon points="65.2,37.5 59.9,33.6 54.7,36 49.6,24.7 42.2,31.1 33.5,55.9 39.5,53.1 42.4,67.5 49.9,50.7 58.9,58.7 58.9,48.1 
		68.7,62.1 	"/>
	<path d="M72,0H18C8.1,0,0,8.1,0,18v54c0,7,4,13,9.9,16l3.5-22l9.6-29.1l10.4,7.4l9.2-19.6l7.4-4.9l16.4,14.2l4.4,20.5l3.4,1.5
		l5.9,32C86,85.1,90,79,90,72V18C90,8.1,81.9,0,72,0z"/>
	<path d="M71.2,69.2l-3-1l-5.6-7.3l-0.3,3L65.8,90H72c1.1,0,2.2-0.1,3.2-0.3L71.2,69.2z"/>
	<path d="M50.5,61.2c0,0.1,10.4,23.6,10.8,25C61,84.8,57,64.6,57,64.6L50.5,61.2z"/>
</g>
</svg>
