<?xml version="1.0" encoding="utf-8"?>
<!-- Generator: Adobe Illustrator 27.2.0, SVG Export Plug-In . SVG Version: 6.00 Build 0)  -->
<svg version="1.1" id="boulderingRoutesSettingIcon"
	 xmlns="http://www.w3.org/2000/svg" xmlns:xlink="http://www.w3.org/1999/xlink" x="0px" y="0px" viewBox="0 0 90 90"
	 style="enable-background:new 0 0 90 90;" xml:space="preserve">
<path d="M72,0H18C8.1,0,0,8.1,0,18v54c0,9.9,8.1,18,18,18h54c9.9,0,18-8.1,18-18V18C90,8.1,81.9,0,72,0z M36,85.8
	c-0.5,0.5-7.6,0.9-8.5,0.4c-0.8-0.6,1-2.3-0.4-7.8c-0.1-0.4,1.7,0.2,2.6,0.7s4.9-0.3,5.8-0.4c0.8-0.1,0.2,2.2-0.1,3.4
	C35.2,83.2,36.5,85.3,36,85.8z M53.1,63.5c-0.5-0.5-1.1-7.2-1.1-8c-0.1-0.8-0.5-3.4-0.7-2.7c-0.2,0.7,0.3,14.3,0.3,15.7
	c0,1.5,0.7,17.1,0.2,18C51.6,86.8,51,87,50.3,87c-0.9,0-2-0.3-2.1-0.7c-0.4-0.6-1.4-18.3-1.5-19.3c-0.1-0.9-0.6,0.7-0.7,1.7
	c-0.2,1-1.5,15.2-1.6,16.1c-0.1,0.9-1.4,2.5-2.6,2.1c-0.6-0.2-1.3-1-1.3-2s0-5.6,0.1-7c0-1.4,0.7-15.9,0.7-17.1c0-1.3,0.6-9,0.2-9
	c-0.4-0.1-1.2,7.3-1.5,8.5c-0.3,1.1-0.9,3-1.6,3.1s-1.9-1-1.8-2.1c0.1-1.1,1.2-13.4,1.3-14.8c0.1-1.5,2.1-3.6,2.6-3.9
	c0.6-0.3,4.5-0.8,4.5-1.2c0-0.4-2.1-2.1-3.1-3.3c-1-1.1-0.1-3.9,1.5-5.7c0.7-0.7,1.8-1,2.8-1c1.4,0,2.9,0.5,3.5,1
	c1.1,0.9,1.3,4.4,1.1,5.6c-0.2,1.2-3.1,2.8-2.9,3.5c0.2,0.6,1.7,0,2.4,0.4c0.7,0.3,3.7,2.6,4.1,4.1c0.4,1.6,1.5,15.5,1,17
	c-0.3,0.7-0.7,1-1.2,1C53.7,64,53.3,63.7,53.1,63.5z M63.5,69.6c-1.2,0.2-7.8,0.6-8.6,0.3c-0.7-0.3-0.5-4.1-0.5-4.1s2.7,0.2,3.9,0.1
	c1.1-0.1,1.3-1.7,1.6-3.1s-0.5-12.7-0.7-14.6c-0.3-1.9-2-5.9-3.1-6.3c-1-0.5-3.5-1.6-2.6-2.1c0.9-0.5,1.8-3.1,1.8-4.4
	c0-1.4-3.4-6.1-5.1-6.5c-1.7-0.5-6.9-0.3-9.1,0.6c-2.1,0.8-3.7,4.4-3.8,6.7c-0.1,2.2,2.6,3.9,3.2,4.4c0.5,0.4-2.9,0.9-4.3,1.4
	c-1.5,0.5-2.5,4.1-2.7,6.9c-0.2,2.7-0.4,15.2,0.6,16.1c0.8,0.8,2.8,0.8,3.5,0.8c0.7,0.1,0.4,4.5,0.4,4.8c-0.1,0.3-5.7,0.5-7.7,0.2
	c-2-0.3-2.1-1.1-2.2-2.1c-0.2-1-2.2-40.3-2.3-41.7c-0.1-1.4,2.1-3.5,2.8-3.6c0.7-0.1,32.1-1.4,33.4-1.4c1.3,0,2.9,1.9,3.1,3
	c0.2,1.1,2.1,41.6,2.2,42.6C67.1,68.6,64.6,69.5,63.5,69.6z"/>
</svg>
