<?xml version="1.0" encoding="UTF-8"?>
<!DOCTYPE svg PUBLIC "-//W3C//DTD SVG 1.1//EN" "http://www.w3.org/Graphics/SVG/1.1/DTD/svg11.dtd">
<svg version="1.1" xmlns="http://www.w3.org/2000/svg" xmlns:xlink="http://www.w3.org/1999/xlink" width="90" height="90"  xml:space="preserve" id="boulderingRoutesSettingIcon">
    <!-- Generated by PaintCode - http://www.paintcodeapp.com -->
    <g id="boulderingRoutesSettingIcon-group">
        <rect id="boulderingRoutesSettingIcon-rectangle2" stroke="none" fill="#D9D9D9FF" x="0" y="0" width="90" height="90" rx="18" />
    </g>
    <g id="boulderingRoutesSettingIcon-group2" clip-path="url(#boulderingRoutesSettingIcon-rectangle)">
        <clipPath id="boulderingRoutesSettingIcon-rectangle">
            <rect x="0" y="-73.39" width="73.39" height="73.39"  transform="translate(0.19, 79.8)" />
        </clipPath>
        <g id="boulderingRoutesSettingIcon-group3">
            <path id="boulderingRoutesSettingIcon-bezier" stroke="none" fill="#282630FF" d="M -0.31,12.82 L 3.27,12.47 C 12.83,12.35 19.61,12.15 24.66,12 28.51,11.89 31.35,11.81 33.66,11.81 36.8,11.81 38.82,11.97 41.11,12.38 42.05,12.55 43.19,12.69 44.43,12.82 47.91,13.21 53.16,13.81 54.3,16.13 54.57,16.67 54.83,17.09 55.06,17.47 55.19,17.52 55.11,18.1 54.23,20.14 L 52.85,22.72 C 51.49,24.84 49.58,26.35 47.17,27.06 44.33,27.92 42.07,28.92 40.24,30.15 L 39.9,30.38 36.02,34.57 C 36.02,34.57 35.3,35.88 35.07,36.34 34.46,37.57 34.21,37.99 33.66,38.34 29.34,41.06 21.87,52.74 19.67,56.28 L 8.93,64.43 4.52,66.9 3.47,68.39 -0.05,71.6 -0.05,79.61 6.97,69.6 11.08,67.27 22.35,58.71 C 22.35,58.71 31.42,43.95 35.54,41.36 37.44,40.17 37.88,38.48 38.9,36.69 L 42.23,33.11 C 43.6,32.18 45.5,31.28 48.19,30.47 51.81,29.4 54.3,27.06 56,24.39 L 57.49,21.55 C 59.64,16.59 58.64,16.86 57.49,14.55 54.99,9.46 46.13,9.67 41.73,8.87 34.68,7.6 30.02,8.63 -0.31,8.95" />
            <path id="boulderingRoutesSettingIcon-bezier2" stroke="none" fill="#282630FF" d="M 59.46,23.74 L 57.49,21.55 56,24.39 57.75,25.46 59.73,31.79 58.74,36.55 C 57.4,37.02 56.03,38.41 55.16,39.42 L 54.83,38.51 C 54.83,38.51 58.15,35.1 56.16,32.29 55.11,30.81 49.88,31.72 49.88,31.72 L 50.12,33.36 49.63,35.93 50.69,36.57 50.37,38.28 51.83,38.73 51.83,40.51 49.83,41.1 C 49.83,41.1 47.56,40.29 44.54,42.1 44.86,40.52 42.73,38.92 42.14,36.96 41.88,36.1 42.07,34.23 42.23,33.11 L 38.9,36.69 40.76,38.25 42.14,45.51 C 47.09,46.02 47.64,45.51 47.64,45.51 47.64,45.51 45.99,47.84 44.62,50.43 44.55,50.54 43.99,50.62 43.16,50.67 L 36.05,49.09 35.83,50.72 33.89,50.69 C 33.89,50.69 30.88,49.91 30.32,52.76 30.04,53.02 26.2,60.53 26.2,60.53 L 21.05,61.12 C 20.23,62.41 22.35,62.86 22.35,62.86 L 26.75,63.9 C 26.75,63.9 32.61,56.82 32.88,56.57 33.16,56.31 34.07,54.78 34.07,54.78 L 35.28,54.92 34.95,57.43 41.41,58.42 40.87,63.58 42.66,63.48 C 42.56,64.52 42.65,65.61 43.24,66.16 43.24,66.42 54.79,69.79 54.79,69.79 L 56.16,73.68 C 58.36,73.22 57.73,73.15 58.15,72.22 57.87,71.96 57.26,68.49 57.54,66.94 57.26,66.94 56.16,66.68 54.51,67.19 54.08,67.19 49.98,63.94 46.9,63.24 L 50.4,62.92 50.59,53.53 C 50.59,55.06 50.8,57.23 52.03,57.55 53.95,58.07 54.51,56.64 54.51,56.64 L 54.51,51.98 51.24,52 C 52.25,50.03 53.62,48.5 54.51,47.84 55.66,46.97 59.51,44.28 59.12,42.21 59.77,41.37 61.11,39.49 62.2,37.21 62.2,36.7 62.75,30.74 62.75,30.74 L 59.46,23.74 Z M 59.46,23.74" />
        </g>
    </g>
</svg>
