<svg viewBox="0 0 64 64" fill="none" xmlns="http://www.w3.org/2000/svg">
<path d="M32.5 17C23.9375 17 17 23.9375 17 32.5C17 41.0625 23.9375 48 32.5 48C41.0625 48 48 41.0625 48 32.5C48 23.9375 41.0625 17 32.5 17ZM40.0625 36.625C40.375 36.875 40.375 37.375 40.0625 37.6875L37.625 40.125C37.3125 40.4375 36.8125 40.4375 36.5625 40.125L32.5 36L28.375 40.125C28.125 40.4375 27.625 40.4375 27.3125 40.125L24.875 37.625C24.5625 37.375 24.5625 36.875 24.875 36.5625L29 32.5L24.875 28.4375C24.5625 28.1875 24.5625 27.6875 24.875 27.375L27.375 24.9375C27.625 24.625 28.125 24.625 28.4375 24.9375L32.5 29L36.5625 24.9375C36.8125 24.625 37.3125 24.625 37.625 24.9375L40.0625 27.375C40.375 27.6875 40.375 28.1875 40.0625 28.4375L36 32.5L40.0625 36.625Z" fill="white"/>
</svg>
