<?xml version="1.0" encoding="UTF-8"?>
<!DOCTYPE svg PUBLIC "-//W3C//DTD SVG 1.1//EN" "http://www.w3.org/Graphics/SVG/1.1/DTD/svg11.dtd">
<svg version="1.1" xmlns="http://www.w3.org/2000/svg" xmlns:xlink="http://www.w3.org/1999/xlink" width="90" height="90"  xml:space="preserve" id="dwsRoutesSettingIcon">
    <!-- Generated by PaintCode - http://www.paintcodeapp.com -->
    <g id="dwsRoutesSettingIcon-group">
        <rect id="dwsRoutesSettingIcon-rectangle2" stroke="none" fill="#D9D9D9FF" x="0" y="-0.04" width="90" height="90" rx="18" />
    </g>
    <path id="dwsRoutesSettingIcon-bezier2" stroke="none" fill="#282630FF" d="M 17.45,18.72 C 18.39,19.09 19.54,20.12 20.21,21.68 20.23,21.72 22.11,19.74 22.01,21.24 21.83,22.28 20.88,23.69 20.88,23.69 L 19.76,33.47 23.61,38.84 C 25.59,38.84 28.79,39.59 30.48,40.44 L 30.48,39.12 C 30.48,39.12 24.46,36.2 25.68,31.5 26.34,29.05 33.77,27.74 33.77,27.74 L 34.24,29.99 36.12,33.19 35,34.51 36.22,36.67 34.53,37.99 35.37,40.34 39.42,40.44 C 39.42,40.44 41.3,38.37 45.81,38.84 44.69,36.96 47.79,31.97 47.6,29.05 L 50.33,25.2 C 52.78,26.14 50.24,31.5 49.77,31.12 L 49.2,33.47 49.67,44.29 C 43.37,47.4 42.43,47.02 42.43,47.02 42.43,47.02 45.72,49.28 48.73,52.01 48.92,52.2 49.67,52.01 50.8,51.63 L 59.46,46.08 60.58,48.15 63.12,47.21 C 63.12,47.21 66.79,44.76 68.86,48.24 69.33,48.43 78.08,56.52 78.08,56.52 L 85.23,54.83 C 86.93,56.15 84.29,57.75 84.29,57.75 L 78.93,61.23 C 78.93,61.23 67.73,54.74 67.26,54.45 66.79,54.27 64.82,52.67 64.82,52.67 L 63.31,53.51 65.01,56.62 56.82,61.04 60.11,67.62 57.67,68.38 C 58.33,69.69 58.7,71.1 58.14,72.14 58.33,72.52 44.59,82.49 44.59,82.49 L 44.69,88.32 C 41.49,88.79 42.33,88.41 41.3,87.38 41.58,86.91 40.73,82.02 39.61,80.04 39.98,79.95 41.3,79.1 43.74,79.01 44.31,78.73 48.17,72.52 51.93,70.07 L 47.13,71.29 42.33,58.97 C 40.08,57.18 35.94,53.89 34.43,53.42 32.46,52.85 26.06,51.07 25.59,48.15 24.27,47.4 21.64,45.52 19.1,43.07 18.81,42.32 15.24,34.79 15.24,34.79 L 17.69,23.78 15.9,19.65 C 15.88,19.46 15.89,19.3 15.93,19.16 16.08,18.55 16.7,18.43 17.45,18.72 Z M 24.79,60.3 C 25.58,61.19 26.26,62.17 26.72,63.11 26.72,63.11 23.8,62.64 22.58,62.73 21.26,62.92 18.53,65.08 17.22,62.45 15.8,59.82 16.46,58.97 18.63,57.46 20.11,56.39 22.79,58.06 24.79,60.3 Z M 75.82,88.7 C 76.55,88.88 77.46,88.92 78.46,88.81 76.46,89.58 74.28,90 72,90 L 48.82,90 C 50.31,88.21 70.04,64.71 80.81,64.8 67.26,75.06 71.69,87.66 75.82,88.7 Z M 35.75,82.68 C 38.25,86.9 40.04,88.46 42.41,90 L 26.17,90 C 26.48,81.38 24.57,73.86 15.8,68.09 27.38,69.88 31.23,75.15 35.75,82.68 Z M 35.75,82.68" />
</svg>
