<?xml version="1.0" encoding="utf-8"?>
<!-- Generator: Adobe Illustrator 27.2.0, SVG Export Plug-In . SVG Version: 6.00 Build 0)  -->
<svg version="1.1" id="dwsRoutesSettingIcon" xmlns="http://www.w3.org/2000/svg" xmlns:xlink="http://www.w3.org/1999/xlink"
	 x="0px" y="0px" viewBox="0 0 90 90" style="enable-background:new 0 0 90 90;" xml:space="preserve">
<path d="M72,0H18C8.1,0,0,8,0,18v54c0,9.9,8.1,18,18,18h8.2c0.3-8.6-1.6-16.1-10.4-21.9c11.6,1.8,15.4,7.1,20,14.6
	c2.5,4.2,4.3,5.8,6.6,7.3h6.5c1.7-2,21.2-25.2,32-25.2c-13.5,10.3-9.1,22.9-5,23.9c0.7,0.2,1.5,0.2,2.4,0.1C85.1,86.3,90,79.7,90,72
	V18C90,8,81.9,0,72,0z M22.6,62.7c-1.3,0.2-4,2.4-5.4-0.3c-1.4-2.6-0.8-3.5,1.4-5c1.5-1.1,4.2,0.6,6.2,2.8c0.8,0.9,1.5,1.9,1.9,2.8
	C26.7,63.1,23.8,62.6,22.6,62.7z M84.3,57.8l-5.4,3.5c0,0-11.2-6.5-11.7-6.8c-0.5-0.2-2.4-1.8-2.4-1.8l-1.5,0.8l1.7,3.1L56.8,61
	l3.3,6.6l-2.4,0.8c0.7,1.3,1,2.7,0.5,3.8c0.2,0.4-13.5,10.3-13.5,10.3l0.1,5.8c-3.2,0.5-2.4,0.1-3.4-0.9c0.3-0.5-0.6-5.4-1.7-7.3
	c0.4-0.1,1.7-0.9,4.1-1c0.6-0.3,4.4-6.5,8.2-8.9l-4.8,1.2L42.3,59c-2.2-1.8-6.4-5.1-7.9-5.5c-2-0.6-8.4-2.3-8.8-5.3
	c-1.3-0.8-4-2.6-6.5-5.1c-0.3-0.8-3.9-8.3-3.9-8.3l2.5-11l-1.8-4.1c0-0.2,0-0.3,0-0.5c0.2-0.6,0.8-0.7,1.5-0.4
	c0.9,0.4,2.1,1.4,2.8,3c0,0,1.9-1.9,1.8-0.4c-0.2,1-1.1,2.5-1.1,2.5l-1.1,9.8l3.8,5.4c2,0,5.2,0.8,6.9,1.6v-1.3c0,0-6-2.9-4.8-7.6
	c0.7-2.5,8.1-3.8,8.1-3.8l0.5,2.2l1.9,3.2L35,34.5l1.2,2.2L34.5,38l0.8,2.3l4,0.1c0,0,1.9-2.1,6.4-1.6c-1.1-1.9,2-6.9,1.8-9.8
	l2.7-3.8c2.5,0.9-0.1,6.3-0.6,5.9l-0.6,2.3l0.5,10.8c-6.3,3.1-7.2,2.7-7.2,2.7s3.3,2.3,6.3,5c0.2,0.2,0.9,0,2.1-0.4l8.7-5.5l1.1,2.1
	l2.5-0.9c0,0,3.7-2.4,5.7,1c0.5,0.2,9.2,8.3,9.2,8.3l7.1-1.7C86.9,56.1,84.3,57.8,84.3,57.8z"/>
</svg>
