<svg  viewBox="0 0 64 64" viewBox="0 0 64 64" fill="none" xmlns="http://www.w3.org/2000/svg">
<path d="M41.6667 31.1797C41.6667 30.5938 40.9219 30.2422 40.4635 30.7109L39.0885 32.1172C38.974 32.2344 38.9167 32.4102 38.9167 32.5859V43.8359C38.9167 44.0703 38.7448 44.1875 38.5729 44.1875H19.0937C18.8646 44.1875 18.75 44.0703 18.75 43.8359V23.9141C18.75 23.7383 18.8646 23.5625 19.0937 23.5625H36.7969C36.9687 23.5625 37.1979 23.5039 37.3125 23.3867L38.6875 21.9805C39.1458 21.5117 38.8021 20.75 38.1719 20.75H18.75C17.2031 20.75 16 22.0391 16 23.5625V44.1875C16 45.7695 17.2031 47 18.75 47H38.9167C40.4062 47 41.6667 45.7695 41.6667 44.1875V31.1797ZM48.3125 17H40.5208C39.8906 17 39.5469 17.7617 40.0052 18.2305L42.7552 21.043L27.1719 36.9805C26.8854 37.2734 26.8854 37.7422 27.1719 37.9766L28.4896 39.3242C28.7187 39.6172 29.1771 39.6172 29.4635 39.3242L45.0469 23.3867L47.7969 26.1992C48.2552 26.6094 49 26.3164 49 25.6719V17.7031C49 17.3516 48.6562 17 48.3125 17Z" fill="white"/>
</svg>
