<?xml version="1.0" encoding="utf-8"?>
<!-- Generator: Adobe Illustrator 27.2.0, SVG Export Plug-In . SVG Version: 6.00 Build 0)  -->
<svg version="1.1" id="filterIcon" xmlns="http://www.w3.org/2000/svg" xmlns:xlink="http://www.w3.org/1999/xlink" x="0px" y="0px"
	 viewBox="0 0 90 90" style="enable-background:new 0 0 90 90;" xml:space="preserve">
<path id="filterIcon-filter_selected" fill="#ADACB0FF" d="M14.8,16.3c0.5-1.1,1.3-1.7,2.5-1.7h55.2c1.2,0,2.1,0.6,2.5,1.7c0.5,1.2,0.3,2.2-0.6,3
	L53.3,40.6v32.1c0,1.2-0.6,2.1-1.7,2.6c-0.4,0.1-0.7,0.2-1.1,0.2c-0.8,0-1.4-0.3-1.9-0.8L37.5,63.5c-0.5-0.5-0.8-1.2-0.8-1.9v-21
	L15.4,19.3C14.5,18.4,14.3,17.4,14.8,16.3z"/>
</svg>
