<?xml version="1.0" encoding="utf-8"?>
<!-- Generator: Adobe Illustrator 27.2.0, SVG Export Plug-In . SVG Version: 6.00 Build 0)  -->
<svg version="1.1" id="tradRoutesSettingIcon" xmlns="http://www.w3.org/2000/svg" xmlns:xlink="http://www.w3.org/1999/xlink"
	 x="0px" y="0px" viewBox="0 0 90 90" style="enable-background:new 0 0 90 90;" xml:space="preserve">
<path d="M7.9,79c-1.8-1.7-1.1-3.3,0.1-4.7l5.5,4.8C12,80.8,9.8,80.6,7.9,79z"/>
<g>
	<polygon points="25.6,31.5 26.9,28 29.4,29.6 34.5,48 34.5,31.1 34.6,21.1 36.8,6.8 38.3,0 23.2,0 25.2,27.3 	"/>
	<path d="M72,0H43.6l-1.3,11.2c0,0-2.5,10.1-2.9,15.5c-0.5,5.3,0.3,12.4,0,15.3C39,44.8,39,51.7,39,55.1c0,3.3-4.5,18.8-5.9,16.6
		c-1.4-2.3-5.5-34.6-5.5-30.6c0,4-1.5,17.3-2,15.2c-2.3-10.4-4.8-28-5.1-30.1c-0.3-2.2-1.7-15-1.7-15L17.7,0C7.9,0.2,0,8.2,0,18v54
		c0,9.9,8.1,18,18,18h54c9.9,0,18-8.1,18-18V18C90,8.1,81.9,0,72,0z M74.1,60.8c-0.3,7.7-1.6,12.9-2.9,16.7h-4.3
		c1.2-5,2.9-14.3,2.9-17.2c0.1-9.6-5.9-20.4-7.3-23c-1.4-2.7-2.2-3.4-3.7-2.7c-1.4,0.8-4.4,2.7-4.4,2.7l0.9,1l-3.2,0.4l0.5,0.9
		L50,39.8l0.6,1.1h-2.7l0.1,1h-3.1v1l-3.6,0.8c0.2-1.7,0.9-2.1,1.9-2.7C44,40.6,50.9,37.7,54,34c3-3.7,4.4-4.5,5.5-4.7
		c1.1-0.2,8.4,0.9,9.4,1.1c0.9,0.3,2.7,0.5,2.8,0.6c0.2,0-0.3,4.8-0.8,4.7c-0.5-0.1-0.9-1.5-2.2-1c-0.9,0.4-2.3,0.9-2,1.7
		C67,37.2,74.4,52.2,74.1,60.8z"/>
</g>
</svg>
