<svg viewBox="0 0 64 64" fill="none" xmlns="http://www.w3.org/2000/svg">
<path d="M38.4615 30.1154C38.4615 34.7169 34.7169 38.4615 30.1154 38.4615C25.5138 38.4615 21.7692 34.7169 21.7692 30.1154C21.7692 25.5138 25.5138 21.7692 30.1154 21.7692C34.7169 21.7692 38.4615 25.5138 38.4615 30.1154ZM48 45.6154C48 44.982 47.7392 44.3672 47.3107 43.9387L40.9207 37.5487C42.4297 35.369 43.2308 32.7608 43.2308 30.1154C43.2308 22.8684 37.3624 17 30.1154 17C22.8684 17 17 22.8684 17 30.1154C17 37.3624 22.8684 43.2308 30.1154 43.2308C32.7608 43.2308 35.369 42.4297 37.5487 40.9207L43.9387 47.2921C44.3672 47.7392 44.982 48 45.6154 48C46.9195 48 48 46.9195 48 45.6154Z" fill="black"/>
</svg>
