<?xml version="1.0" encoding="utf-8"?>
<!-- Generator: Adobe Illustrator 27.2.0, SVG Export Plug-In . SVG Version: 6.00 Build 0)  -->
<svg version="1.1" id="tradRoutesSettingIcon" xmlns="http://www.w3.org/2000/svg" xmlns:xlink="http://www.w3.org/1999/xlink"
	 x="0px" y="0px" viewBox="0 0 90 90" style="enable-background:new 0 0 90 90;" xml:space="preserve">
<g>
	<path d="M10,49.4l19.6-3.5l0.1-15.8l11.7-2.5L53.3,0H18C8.1,0,0,8.1,0,18v33.3L10,49.4z"/>
	<path d="M72,0H59L44.4,32.2L35,34.9l-0.3,15L0,56.8V72c0,9.9,8.1,18,18,18h54c9.9,0,18-8.1,18-18V18C90,8.1,81.9,0,72,0z
		 M74.3,60.6c-0.3,7.7-1.7,12.8-3,16.6H67c1.2-5,2.9-14.3,2.9-17.1c0.1-9.5-6-20.2-7.4-22.9c-1.3-2.6-2.2-3.4-3.7-2.7
		c-1.5,0.7-4.5,2.7-4.5,2.7l0.9,1.1l-3.3,0.4l0.4,0.9l-2.6,0.2l0.5,1.1h-2.8l0.1,1.2l-3.2-0.1v1.1l-3.7,0.8c0.2-1.8,1-2.1,2-2.8
		c0.9-0.5,7.9-3.3,11.1-7c3.1-3.7,4.5-4.5,5.6-4.6c1.1-0.1,8.6,0.8,9.5,1.1c0.9,0.3,2.7,0.4,2.9,0.5c0.3,0.1-0.3,4.9-0.7,4.7
		c-0.4-0.2-1-1.5-2.2-1c-0.9,0.4-2.3,0.8-2.1,1.6C67,37.1,74.6,52,74.3,60.6z"/>
</g>
</svg>
