<svg viewBox="0 0 64 64" fill="none" xmlns="http://www.w3.org/2000/svg">
<path d="M48 32.5C48 24 41 17 32.5 17C23.9375 17 17 24 17 32.5C17 41.0625 23.9375 48 32.5 48C41 48 48 41.0625 48 32.5ZM32.875 22.125C36.4375 22.125 40.1875 24.875 40.1875 28.5C40.1875 33.375 35 33.4375 35 35.1875V35.25C35 35.6875 34.625 36 34.25 36H30.75C30.3125 36 30 35.6875 30 35.25V35C30 32.4375 31.9375 31.4375 33.375 30.625C34.625 29.9375 35.4375 29.4375 35.4375 28.5C35.4375 27.25 33.8125 26.4375 32.5625 26.4375C30.875 26.4375 30.125 27.25 29 28.6875C28.75 29 28.25 29.0625 27.9375 28.8125L25.75 27.1875C25.4375 26.9375 25.375 26.5 25.625 26.125C27.3125 23.5625 29.5 22.125 32.875 22.125ZM32.5 37.625C34.0625 37.625 35.375 38.9375 35.375 40.5C35.375 42.125 34.0625 43.375 32.5 43.375C30.875 43.375 29.625 42.125 29.625 40.5C29.625 38.9375 30.875 37.625 32.5 37.625Z" fill="black"/>
</svg>
