<?xml version="1.0" encoding="UTF-8"?>
<!DOCTYPE svg PUBLIC "-//W3C//DTD SVG 1.1//EN" "http://www.w3.org/Graphics/SVG/1.1/DTD/svg11.dtd">
<svg version="1.1" xmlns="http://www.w3.org/2000/svg" xmlns:xlink="http://www.w3.org/1999/xlink" width="50" height="50"  xml:space="preserve" id="routeTickedIndicator">
    <path id="routeTickedIndicator-bezier" stroke="none" fill="rgb(0, 128, 255)" d="M 50,0 C 50,-0 50,0.73 50,2.02 49.46,2.56 48.74,3.27 47.93,4.09 44.06,7.94 37.97,14.01 37.97,14.01 L 32.12,8.16 C 31.76,7.81 31.26,7.61 30.76,7.61 30.26,7.61 29.77,7.81 29.41,8.16 L 26.7,10.86 C 26.34,11.22 26.14,11.71 26.14,12.21 26.14,12.7 26.34,13.2 26.7,13.56 L 33.91,20.74 36.62,23.44 C 36.98,23.79 37.47,23.99 37.97,23.99 38.47,23.99 38.97,23.79 39.33,23.44 L 42.04,20.74 C 42.04,20.74 46.16,16.64 50,12.82 50,27.63 50,50 50,50 L 0,-0 50,-0 50,0 Z M 50,0" />
</svg>
