<?xml version="1.0" encoding="utf-8"?>
<!-- Generator: Adobe Illustrator 27.2.0, SVG Export Plug-In . SVG Version: 6.00 Build 0)  -->
<svg version="1.1" id="scramblesSettingIcon" xmlns="http://www.w3.org/2000/svg" xmlns:xlink="http://www.w3.org/1999/xlink"
	 x="0px" y="0px" viewBox="0 0 90 90" style="enable-background:new 0 0 90 90;" xml:space="preserve">
<path d="M72,0H18C8.1,0,0,8.1,0,18v54c0,9.9,8.1,18,18,18h54c9.9,0,18-8.1,18-18V18C90,8.1,81.9,0,72,0z M69.5,62.2
	c0.6-0.3,2,0.7,1.7,1.5c-0.3,0.7-3.3,3-4.1,3C66.4,66.7,68.8,62.6,69.5,62.2z M65.6,59.8c-0.7,0.7-4.1,1.8-4.8,1.6
	c-0.7-0.2,2-3.6,3.1-3.6C64.5,57.8,66.3,59,65.6,59.8z M62,54.5c-0.6,0.3-4.1,0.5-4.8,0.2c-0.7-0.3,2.7-2,4-2.3
	C62.4,52.2,62.6,54.2,62,54.5z M60.6,46c0.6,0.2,0.5,1.9-0.4,2.1c-0.7,0.2-4.3-0.4-4.5-1C55.5,46.5,59.7,45.6,60.6,46z M31.2,32.7
	c1-1.3,2.2-3.8,2.9-3.9c1.2-0.1,16.3,6,17.1,6.4c0.9,0.5,2.3,0.7,1.8,1.5c-0.4,0.8-4.2,5.1-5.3,5c-1.1-0.1-16-6.6-16.4-6.8
	C30.9,34.8,30.3,33.8,31.2,32.7z M22.5,43.8c1.5-0.7,5.2-3.7,5.9-4.5c0.8-0.8,1.2-2.1,1.2-2.1s17.2,7.2,17.9,7.2c0.8,0,4.2-2,4.8-3
	c0.6-1,1.4-3.3,2.4-2.9c1,0.4,3.8,1.2,3.9,2.7c0.2,1.5-0.5,3.2-0.5,3.2s-4.4-0.1-4.7,0.9c-0.3,1-1.3,2.7,0.6,3.3
	c1.9,0.6,4,0.9,4,0.9l0.2,1.9c0,0-2.3,0.2-2.9,1.2c-0.6,0.9-1.4,2.7-0.5,3.2c0.8,0.5,5.3,0.4,5.3,0.4l0.9,1.8c0,0-3,1.1-3.2,2.4
	c-0.2,1.3,0.1,3.1,1.6,3.2c1.6,0.1,5.3-1.3,5.3-1.3s1.2,0.8,1.6,1c0.3,0.1-2,1.9-2,3.2c0,1.3,1.2,2.6,2.3,2.6c1.2,0,5.2-2.8,5.2-2.8
	s5.2,1.5,6,2.8c0.8,1.2,2,2.5,2.2,3.4c0.2,1.1,0.5,4.6,0.5,4.6c-10.2,0.2-20.9-2-30.3-5.8c-2.5-1-4.1-2-6-4
	c-3.5-3.7-15.5-10.9-18.4-12c-2.8-1-9-3.5-9-3.5S21,44.5,22.5,43.8z M77.9,83.6l-0.2-1.8l-3.1,0.3l0.1,2l-2.7,0l0-2l-3,0l0,1.9
	l-3.1-0.3l0.1-1.9l-2.8-0.5l-0.5,1.9l-2.9-0.6l0.4-1.8l-2.3-0.5L57.4,82l-3.2-0.7l0.3-1.9l-2.5-1.2l-1,1.6l-2.3-1l0.6-1.5l-2.3-2
	L46,77.1c0,0-5.3-4.3-7-6.3c-1.6-2-5.5-4.4-5.5-4.4l-1.4,3.1l-2.7-0.8l0.5-2.6l-2.6-1.3L26,67.7l-2.8-1.3l0.9-2.6l-2.2-1.1L21,65.7
	l-3.6-1.5l0.8-3L15.6,60l-0.9,2.4L12.5,61l3.3-7.1c0,0,9.3,2.7,12.5,4.7c3.2,2,13.6,9.6,15.7,11.5c2,1.9,11.1,5.6,14.9,6.8
	c3.7,1.1,14.4,2.7,16.2,2.6c1.8-0.1,6-0.3,6-0.3l0.2,4.3L77.9,83.6z"/>
</svg>
