<?xml version="1.0" encoding="UTF-8"?>
<!DOCTYPE svg PUBLIC "-//W3C//DTD SVG 1.1//EN" "http://www.w3.org/Graphics/SVG/1.1/DTD/svg11.dtd">
<svg version="1.1" xmlns="http://www.w3.org/2000/svg" xmlns:xlink="http://www.w3.org/1999/xlink" width="90" height="90"  xml:space="preserve" id="scramblesSettingIcon">
    <!-- Generated by PaintCode - http://www.paintcodeapp.com -->
    <g id="scramblesSettingIcon-group">
        <rect id="scramblesSettingIcon-rectangle2" stroke="none" fill="#D9D9D9FF" x="0" y="0" width="90" height="90" rx="18" />
    </g>
    <g id="scramblesSettingIcon-group2" clip-path="url(#scramblesSettingIcon-rectangle)">
        <clipPath id="scramblesSettingIcon-rectangle">
            <rect x="0" y="-92.67" width="92.67" height="92.67"  transform="translate(2.88, 90.05)" />
        </clipPath>
        <g id="scramblesSettingIcon-group3" clip-path="url(#scramblesSettingIcon-clip)">
            <clipPath id="scramblesSettingIcon-clip">
                <rect x="5.32" y="-0.58" width="93.3" height="92.15" />
            </clipPath>
        </g>
        <path id="scramblesSettingIcon-bezier" stroke="none" fill="#282630FF" d="M 48.73,15.48 C 48.73,15.46 48.94,17.26 48.94,17.26 L 50.32,19.88 49.14,20.57 50.18,22.65 48.59,23.62 48.04,25.07 C 49.07,25.55 49.7,26.24 49.7,26.24 52.19,28.39 55.92,30.12 56.4,30.95 58.96,32.26 64.56,33.57 66.43,33.37 66.43,33.37 69.26,33.23 70.16,35.3 L 67.88,35.16 67.53,36.41 65.81,35.65 C 65.81,35.65 57.09,35.37 55.85,35.09 54.61,35.03 52.25,33.43 50.04,31.98 L 50.11,33.16 C 50.11,33.16 48.59,37.65 48.24,41.73 49,41.59 51.22,41.18 53.29,41.18 55.16,41.18 56.89,41.52 57.44,42.63 58.62,44.98 58.13,50.79 59.03,53.97 60.41,54.25 61.45,53.42 62.69,53.42 63.11,53.42 63.59,53.49 64.15,53.83 64.63,54.45 63.04,54.73 62.07,55.77 59.17,56.32 60,57.98 57.23,58.33 57.09,57.98 56.33,56.94 56.13,54.87 55.64,50.24 53.78,48.23 54.19,45.33 54.19,45.33 49.63,47.26 45.96,47.33 44.99,50.58 43.54,55.15 42.85,56.87 41.88,59.29 37.11,62.68 35.31,65.38 36.21,67.11 38.29,66.97 38.7,69.25 37.87,69.53 36.91,68.97 35.87,68.9 33.59,67.04 32.89,68.7 30.82,66.76 30.96,66.48 31.3,65.17 32.76,63.72 36.01,60.47 36.28,57.57 38.7,56.04 L 40.64,44.57 C 40.43,44.01 40.5,43.46 40.57,42.22 39.89,42.25 39.3,42.34 38.7,42.29 37.73,42.22 36.21,41.59 35.73,40.56 35.04,41.59 34.55,42.98 34.28,43.88 34.28,43.88 33.38,46.57 31.1,46.64 L 32.13,44.5 31.1,43.67 32.55,42.35 C 32.55,42.35 34.21,35.3 34.76,34.2 34.9,33.92 35.18,33.57 35.52,33.23 35.66,29.63 35.94,25.9 36.35,25.21 37.18,23.82 37.67,24.1 38.91,24.24 39.95,24.38 41.81,24.79 42.51,25.55 L 43.96,24.38 C 43.96,24.38 39.88,21.82 41.47,18.15 42.3,16.22 48.73,15.46 48.73,15.46 L 48.73,15.48 Z M 48.73,15.48" />
        <path id="scramblesSettingIcon-bezier4" stroke="none" fill="#282630FF" d="M 94.62,19.2 L 93.78,19.5 C 93.78,19.49 93.77,21.84 92.6,22.12 91.54,22.19 84.74,28.49 84.74,28.49 L 82.38,31.22 75.18,41.26 71.29,40.82 70.44,46.89 70.78,51.05 70.2,55.43 67.72,58.56 C 67.72,58.56 65.09,60.18 64.63,60.49 63.84,61.03 56.83,65.74 56.83,65.74 56.83,65.74 54.68,68.46 52.9,70.71 51.66,72.28 50.6,73.62 50.6,73.62 50.6,73.62 48.8,73.36 46.79,73.07 44.29,72.71 41.48,71.78 41.48,71.78 41.48,71.78 40.85,72.39 40.15,73.08 L 39.83,73.39 C 39.05,74.15 38.3,74.89 38.3,74.89 L 31.48,74.79 C 31.48,74.79 30.83,77.63 30.48,79.78 30.1,82.08 29.72,84.48 29.72,84.48 29.72,84.48 25.71,82.72 24.18,81.82 23.65,81.51 23.29,81.3 23.29,81.3 23.29,81.3 23.1,81.71 22.8,82.35 21.81,84.49 19.63,89.18 19.63,89.18 19.63,89.18 18.35,89.73 17.76,90.13 L 12.42,90.13 16.3,86.4 18.38,85.01 C 18.38,85.01 18.81,84.07 19.39,82.84 20.47,80.51 22.04,77.13 22.04,77.13 22.04,77.13 24.92,78.83 26.47,79.75 27.04,80.08 27.43,80.31 27.43,80.31 27.43,80.31 27.5,79.9 27.61,79.25 27.99,76.88 28.88,71.39 28.88,71.39 L 37.04,71.26 C 37.04,71.26 37.8,70.51 38.58,69.75 L 38.89,69.45 C 39.59,68.76 40.22,68.14 40.22,68.14 L 49.35,69.46 55.26,62.21 C 55.26,62.21 61.77,57.7 62.26,57.56 62.54,57.48 65.01,55.19 65.01,55.19 L 66.96,52.21 66.29,48.5 67.34,44.09 68.96,35.88 72.58,37.19 81.98,24.8 90.12,18.83 93.81,13.12 94.62,19.2 Z M 94.62,19.2" />
    </g>
</svg>
