<?xml version="1.0" encoding="utf-8"?>
<!-- Generator: Adobe Illustrator 27.2.0, SVG Export Plug-In . SVG Version: 6.00 Build 0)  -->
<svg version="1.1" id="sportRoutesSettingIcon" xmlns="http://www.w3.org/2000/svg" xmlns:xlink="http://www.w3.org/1999/xlink"
	 x="0px" y="0px" viewBox="0 0 90 90" style="enable-background:new 0 0 90 90;" xml:space="preserve">
<g>
	<path d="M41.3,69.9c-0.4-6-3.7-15.1-5.6-19.6c0,0-0.7,1.2-0.9,1.3c-0.6,0.5-2.6,1-2.5-1.7c0-0.3,0.8-1.6,0.8-1.6
		c-1.2-0.3-2.6-0.4-3.8-0.2c0,0,0.7,1.5,0.5,1.9c-1.2,2.9-3.1,0.8-3.1,0.8c-1.7,4.7-3.2,12.6-3.2,17.3C23.6,80.3,41.6,74,41.3,69.9z
		"/>
	<path d="M39.1,40.5l0.9,0.6c1.1-0.7,2.2-2,2.7-2.7c0.9-1.2,1.5-2.5,1.7-3.4l-1-0.6C41.7,35.6,39.7,38.4,39.1,40.5z"/>
	<path d="M20.1,3.1c-0.2,1-0.6,1.8-1.1,2.4L19.9,9c0.9,0.3,1.8,1,2.6,2.2c1.8,2.7,2.6,7.2,1.8,10.3c-0.2,0.8-0.5,1.5-0.9,2.1l1,3.9
		c0.8,0.3,1.6,1,2.3,2c1.8,2.7,2.6,7.2,1.8,10.3c-0.2,0.9-0.6,1.6-1,2.2l0.8,2.9c2-0.4,4.3-0.1,6.3,0.6l1.3-2.2
		c-0.4-0.8-0.5-2-0.2-3.3c0.7-3.1,3.4-6.8,6.2-8.5c0.9-0.5,1.8-0.8,2.5-0.8l1.9-3.1c-0.5-0.8-0.6-2-0.3-3.4c0.7-3.1,3.4-6.8,6.2-8.5
		c0.8-0.5,1.5-0.7,2.1-0.8l2.1-3.4c-0.3-0.8-0.4-1.9-0.1-3.1c0.7-3,3.3-6.6,5.9-8.4h-42C20.4,1,20.3,2.2,20.1,3.1z"/>
	<path d="M60,8l1.4,0.9c0.8-0.7,1.5-1.6,1.9-2.1c1-1.3,1.5-2.6,1.8-3.6c0.1-0.5,0.2-0.8,0.2-1c-0.2,0-0.5,0.1-1,0.4
		C62.7,3.7,60.8,6,60,8z"/>
	<path d="M49.5,24.3l1.2,0.7c1-0.8,1.9-1.8,2.3-2.5c1-1.3,1.6-2.6,1.8-3.6l-0.5-0.7C52.2,19.6,50.2,22.2,49.5,24.3z"/>
	<path d="M23.1,31.9c-0.4,2.3,0.6,5.9,1.5,7.3l1-0.2c0.5-2.2-0.3-5.8-1.3-7.5L23.1,31.9z"/>
	<path d="M15.6,1.8l1.6-0.4l0-1.3c-0.7,0-1.4,0.1-2.1,0.2C15.2,0.8,15.4,1.4,15.6,1.8z"/>
	<path d="M72,0h-4c0.6,0.8,0.7,2.3,0.3,4c-0.7,3.2-3.4,6.8-6.2,8.5c-1,0.6-1.9,0.9-2.8,0.9l-1.7,2.8c0.6,0.9,0.8,2.1,0.4,3.7
		c-0.7,3.1-3.4,6.8-6.2,8.5C51,28.7,50.1,29,49.4,29l-1.9,3.2c0.4,0.8,0.5,2,0.2,3.3c-0.7,3.2-3.4,6.8-6.2,8.5
		c-0.9,0.5-1.8,0.8-2.6,0.8l-1.4,2.4c0.4,0.4,0.6,0.8,0.8,1.2c2,4.3,5.7,14.4,6.2,21.2c0.6,9.1-24.2,14.4-24.2-1.5
		c0-5.7,1.9-15.2,3.9-20.3c0.3-0.7,0.7-1.3,1.3-1.7l-0.8-2.9c-1-0.2-2-0.9-2.8-2.2c-1.8-2.7-2.6-7.2-1.8-10.3c0.3-1.2,0.8-2,1.4-2.6
		l-0.8-3.2c-1-0.2-2.1-0.9-3-2.2c-1.8-2.7-2.6-7.2-1.8-10.3c0.2-1,0.6-1.8,1.1-2.4l-0.9-3.5c-0.9-0.3-1.8-1-2.6-2.2
		c-0.6-0.9-1.1-2.1-1.4-3.3C5,3.6,0,10.2,0,18v54c0,9.9,8.1,18,18,18h54c9.9,0,18-8.1,18-18V18C90,8.1,81.9,0,72,0z"/>
	<path d="M21.4,20.2c0.3-2.3-0.6-5.9-1.5-7.3l-1,0c-0.6,2.1,0.3,5.9,1.2,7.6L21.4,20.2z"/>
</g>
</svg>
