<?xml version="1.0" encoding="UTF-8"?>
<!DOCTYPE svg PUBLIC "-//W3C//DTD SVG 1.1//EN" "http://www.w3.org/Graphics/SVG/1.1/DTD/svg11.dtd">
<svg version="1.1" xmlns="http://www.w3.org/2000/svg" xmlns:xlink="http://www.w3.org/1999/xlink" width="90" height="90"  xml:space="preserve" id="sportRoutesSettingIcon">
    <!-- Generated by PaintCode - http://www.paintcodeapp.com -->
    <g id="sportRoutesSettingIcon-group">
        <rect id="sportRoutesSettingIcon-rectangle2" stroke="none" fill="#D9D9D9FF" x="0" y="0" width="90" height="90" rx="18" />
    </g>
    <g id="sportRoutesSettingIcon-group2">
        <path id="sportRoutesSettingIcon-bezier" stroke="none" fill="#282630FF" d="M 67.97,0 L 62.42,0 C 59.81,1.75 57.19,5.38 56.51,8.36 56.22,9.59 56.29,10.64 56.62,11.46 L 54.53,14.89 C 53.87,14.98 53.15,15.24 52.39,15.69 49.62,17.33 46.95,21 46.21,24.15 45.89,25.56 46.02,26.73 46.49,27.57 L 44.62,30.64 C 43.86,30.68 43,30.95 42.11,31.48 39.33,33.13 36.65,36.79 35.92,39.93 35.6,41.29 35.72,42.41 36.13,43.25 L 34.78,45.47 C 32.85,44.71 30.52,44.45 28.51,44.83 L 27.75,41.95 C 28.16,41.4 28.49,40.67 28.71,39.78 29.43,36.64 28.64,32.17 26.87,29.48 26.18,28.44 25.38,27.77 24.58,27.43 L 23.54,23.51 C 23.91,22.97 24.22,22.29 24.41,21.46 25.14,18.32 24.35,13.85 22.57,11.16 21.79,9.97 20.86,9.26 19.94,8.99 L 19.02,5.5 C 19.5,4.93 19.88,4.14 20.11,3.14 20.34,2.23 20.4,1.05 20.37,0 L 17.15,0 17.16,1.37 15.59,1.78 C 15.38,1.31 15.16,0.6 14.99,0 L 11.6,0 C 11.96,1.56 12.55,3.18 13.31,4.34 14.09,5.53 15,6.24 15.93,6.51 L 16.86,10 C 16.37,10.57 15.99,11.36 15.76,12.36 15.03,15.5 15.82,19.97 17.59,22.66 18.47,23.99 19.52,24.73 20.56,24.9 L 21.4,28.06 C 20.8,28.64 20.33,29.53 20.05,30.68 19.31,33.82 20.11,38.28 21.89,40.98 22.73,42.26 23.74,42.99 24.72,43.2 L 25.51,46.13 C 24.95,46.58 24.51,47.16 24.24,47.85 22.21,52.9 20.34,62.42 20.35,68.11 20.37,84.03 45.13,78.77 44.52,69.65 44.07,62.84 40.32,52.72 38.37,48.42 38.17,47.98 37.88,47.57 37.52,47.2 L 38.95,44.84 C 39.73,44.81 40.59,44.54 41.51,43.99 44.29,42.35 46.98,38.69 47.7,35.54 48.02,34.17 47.89,33.02 47.47,32.19 L 49.39,29.04 C 50.12,28.98 50.95,28.72 51.81,28.2 54.58,26.56 57.27,22.9 57.99,19.75 58.35,18.21 58.16,16.95 57.59,16.09 L 59.31,13.26 C 60.15,13.27 61.1,13.02 62.1,12.41 64.88,10.77 67.56,7.11 68.28,3.96 68.66,2.34 68.6,0.85 67.97,0 Z M 21.4,20.24 L 20.13,20.58 C 19.17,18.86 18.29,15.11 18.89,12.99 L 19.86,12.94 C 20.8,14.36 21.75,17.93 21.4,20.24 Z M 24.6,39.2 C 23.66,37.78 22.71,34.2 23.07,31.88 L 24.34,31.54 C 25.26,33.22 26.13,36.86 25.6,39.02 L 24.6,39.2 Z M 41.29,69.86 C 41.57,74.05 23.61,80.31 23.58,68.1 23.58,63.33 25.03,55.49 26.75,50.78 26.75,50.78 28.65,52.85 29.86,49.95 30.04,49.49 29.36,48.03 29.36,48.03 30.52,47.85 31.93,47.89 33.11,48.2 33.11,48.2 32.29,49.49 32.29,49.84 32.19,52.63 34.14,52.05 34.79,51.58 34.99,51.43 35.64,50.26 35.64,50.26 37.6,54.72 40.9,63.9 41.29,69.86 Z M 42.76,38.41 C 42.26,39.1 41.13,40.4 40.04,41.12 L 39.11,40.54 C 39.65,38.37 41.65,35.63 43.55,34.39 L 44.5,34.98 C 44.24,35.94 43.67,37.16 42.76,38.41 Z M 53.05,22.62 C 52.61,23.23 51.66,24.32 50.7,25.07 L 49.51,24.34 C 50.22,22.16 52.21,19.57 54.36,18.31 L 54.84,19.03 C 54.61,20.01 54.02,21.3 53.05,22.62 Z M 65.12,3.24 C 64.89,4.21 64.31,5.51 63.35,6.83 62.96,7.35 62.22,8.22 61.42,8.92 L 59.98,8.05 C 60.82,5.99 62.65,3.7 64.35,2.68 64.78,2.43 65.12,2.32 65.3,2.29 65.33,2.47 65.24,2.74 65.12,3.24 Z M 65.12,3.24" />
    </g>
</svg>
