<?xml version="1.0" encoding="utf-8"?>
<!-- Generator: Adobe Illustrator 27.2.0, SVG Export Plug-In . SVG Version: 6.00 Build 0)  -->
<svg version="1.1" id="star" xmlns="http://www.w3.org/2000/svg" xmlns:xlink="http://www.w3.org/1999/xlink" x="0px" y="0px"
	 viewBox="0 0 90 90" style="enable-background:new 0 0 90 90;" xml:space="preserve">
<path id="star-bezier" d="M66.2,81.8c-0.8,0-1.7-0.3-2.6-0.8L45,70.9L26.3,81c-1.7,1-3.4,1-4.6,0.1
	c-0.9-0.7-1.8-2-1.3-4.5l3.5-21.4L8.9,40C7,38.1,7,36.5,7.3,35.4S8.6,33,11,32.7l21-3.1L41.3,10c1.1-2.3,2.6-2.8,3.7-2.8
	c1,0,2.5,0.5,3.7,2.8l9.4,19.6L79,32.8c2.4,0.3,3.4,1.6,3.7,2.7c0.3,1,0.3,2.7-1.4,4.5L66.1,55.1l3.5,21.4c0.5,2.5-0.5,3.9-1.3,4.5
	C67.7,81.5,67,81.8,66.2,81.8z"/>
</svg>
