<svg viewBox="0 0 64 64" fill="none" xmlns="http://www.w3.org/2000/svg">
<path d="M32.5303 26.7003C29.2616 26.7003 26.7193 29.2981 26.7193 32.4396C26.7193 35.5811 29.2616 38.2997 32.5303 38.2997C35.7384 38.2997 38.2807 35.7019 38.2807 32.5C38.2807 29.3585 35.7384 26.7003 32.5303 26.7003ZM47.8446 37.9976L44.0312 32.5L47.8446 27.0024C48.2078 26.3983 47.9052 25.6733 47.2393 25.5525L40.6414 24.3442L39.4308 17.7592C39.3097 17.0947 38.5834 16.7926 38.0386 17.1551L32.5303 21.0215L26.9614 17.2155C26.3561 16.853 25.6297 17.1551 25.5087 17.8196L24.3586 24.4046L17.7607 25.6129C17.0948 25.7337 16.7922 26.4587 17.1554 27.0024L20.9688 32.5L17.1554 38.058C16.7922 38.6017 17.0948 39.3267 17.7607 39.4475L24.3586 40.6558L25.5692 47.2408C25.6903 47.9053 26.4166 48.2074 26.9614 47.8449L32.5303 44.0389L38.0386 47.8449C38.5834 48.2074 39.3097 47.9053 39.4308 47.2408L40.6414 40.6558L47.2393 39.4475C47.9052 39.3267 48.2078 38.6017 47.8446 37.9976ZM32.5303 40.2329C28.2326 40.2329 24.7823 36.7289 24.7823 32.5C24.7823 28.2711 28.2931 24.8275 32.5303 24.8275C36.7069 24.8275 40.2177 28.3315 40.2177 32.5C40.2177 36.7893 36.7674 40.2329 32.5303 40.2329Z" fill="black"/>
</svg>
