<?xml version="1.0" encoding="UTF-8"?>
<!DOCTYPE svg PUBLIC "-//W3C//DTD SVG 1.1//EN" "http://www.w3.org/Graphics/SVG/1.1/DTD/svg11.dtd">
<svg version="1.1" xmlns="http://www.w3.org/2000/svg" xmlns:xlink="http://www.w3.org/1999/xlink" width="90" height="90"  xml:space="preserve" id="tradRoutesSettingIcon">
    <!-- Generated by PaintCode - http://www.paintcodeapp.com -->
    <g id="tradRoutesSettingIcon-group">
        <rect id="tradRoutesSettingIcon-rectangle2" stroke="none" fill="#D9D9D9FF" x="0" y="0" width="90" height="90" rx="18" />
    </g>
    <g id="tradRoutesSettingIcon-group2">
        <path id="tradRoutesSettingIcon-bezier" stroke="none" fill="#282630FF)" d="M 36.93,60.92 L 21.02,82.49 5.64,69.46 26.82,52.63 36.93,60.92 Z M 8,74.31 C 6.86,75.71 6.08,77.3 7.92,78.97 9.84,80.56 12.05,80.81 13.55,79.14 L 8,74.31 Z M 31.84,54.58 C 31.84,54.58 45.99,40.76 52.06,38.1 56.29,36.25 76.08,23.84 77.57,21.37 79.06,18.92 82.58,12.39 78.37,11.07 73.42,9.49 70.61,12.39 68.88,14.06 65.86,16.8 56.11,34.23 56.11,34.23 L 49.33,38.28 C 49.33,38.28 58.83,18.82 63.95,13.02 69.12,7.19 74.93,5.97 79.85,7.56 84.78,9.14 86.44,16.8 80.57,23.49 74.48,30.36 59.01,38.21 54.09,40.92 48.89,43.75 34.92,57.13 34.92,57.13 L 31.84,54.58 Z M 31.84,54.58" />
    </g>
</svg>
