<?xml version="1.0" encoding="utf-8"?>
<!-- Generator: Adobe Illustrator 27.2.0, SVG Export Plug-In . SVG Version: 6.00 Build 0)  -->
<svg version="1.1" id="tradRoutesSettingIcon" xmlns="http://www.w3.org/2000/svg" xmlns:xlink="http://www.w3.org/1999/xlink"
	 x="0px" y="0px" viewBox="0 0 90 90" style="enable-background:new 0 0 90 90;" xml:space="preserve">
<path d="M72,0H18C8.1,0,0,8.1,0,18v54c0,9.9,8.1,18,18,18h54c9.9,0,18-8.1,18-18V18C90,8.1,81.9,0,72,0z M7.9,79
	c-1.8-1.7-1.1-3.3,0.1-4.7l5.5,4.8C12,80.8,9.8,80.6,7.9,79z M21,82.5l-15.4-13l21.2-16.8l10.1,8.3L21,82.5z M80.6,23.5
	C74.5,30.4,59,38.2,54.1,40.9c-5.2,2.8-19.2,16.2-19.2,16.2l-3.1-2.5c0,0,14.1-13.8,20.2-16.5c4.2-1.8,24-14.3,25.5-16.7
	c1.5-2.5,5-9,0.8-10.3c-5-1.6-7.8,1.3-9.5,3c-3,2.7-12.8,20.2-12.8,20.2l-6.8,4c0,0,9.5-19.5,14.6-25.3c5.2-5.8,11-7,15.9-5.5
	C84.8,9.1,86.4,16.8,80.6,23.5z"/>
</svg>
