<svg width="56" height="56" viewBox="0 0 56 56" fill="none" xmlns="http://www.w3.org/2000/svg">
<path d="M49.1376 25.5848C48.1632 24.6104 46.7016 23.984 44.8224 23.984C42.1776 23.984 40.716 25.7936 40.716 28.4384C40.716 31.1528 42.3864 32.8928 44.9616 32.8928C46.9104 32.8928 48.0936 32.336 49.4856 31.292V35.1896C47.8848 36.0944 46.4232 36.3032 44.8224 36.3032C39.7416 36.3032 36.54 33.032 36.54 28.4384C36.54 23.7752 39.8808 20.504 44.8224 20.504C46.4232 20.504 47.8848 20.7824 49.1376 21.4784V25.5848ZM31.7376 20.7824H36.3312L31.2504 28.16L36.6792 36.0944H32.016L26.8656 28.508L31.7376 20.7824ZM22.7592 20.7824H26.796V36.0944H22.7592V20.7824ZM6.264 20.7824H10.3008V29.7608C10.3008 32.2664 11.3448 33.1016 13.1544 33.1016C14.268 33.1016 14.964 33.032 15.66 32.8928V20.7824H19.6968V35.5376C18.3048 35.9552 15.1728 36.3032 13.1544 36.3032C9.5352 36.3032 6.264 34.9112 6.264 30.596V20.7824ZM55.68 28.16C55.68 12.7784 43.2216 0.319994 27.84 0.319994C12.4584 0.319994 0 12.7784 0 28.16C0 43.5416 12.4584 56 27.84 56C43.2216 56 55.68 43.5416 55.68 28.16Z" fill="white"/>
<path d="M49.1376 25.5848L46.9791 27.7433L52.1902 32.9545V25.5848H49.1376ZM49.4856 31.292H52.5382V25.1867L47.654 28.8499L49.4856 31.292ZM49.4856 35.1896L50.9877 37.8471L52.5382 36.9707V35.1896H49.4856ZM49.1376 21.4784H52.1902V19.6822L50.6201 18.8099L49.1376 21.4784ZM31.7376 20.7824V17.7298H30.0537L29.1555 19.1541L31.7376 20.7824ZM36.3312 20.7824L38.8453 22.5138L42.14 17.7298H36.3312V20.7824ZM31.2504 28.16L28.7363 26.4286L27.5478 28.1544L28.731 29.8838L31.2504 28.16ZM36.6792 36.0944V39.147H42.4666L39.1986 34.3706L36.6792 36.0944ZM32.016 36.0944L29.4904 37.809L30.3988 39.147H32.016V36.0944ZM26.8656 28.508L24.2835 26.8797L23.2178 28.5696L24.34 30.2226L26.8656 28.508ZM22.7592 20.7824V17.7298H19.7066V20.7824H22.7592ZM26.796 20.7824H29.8486V17.7298H26.796V20.7824ZM26.796 36.0944V39.147H29.8486V36.0944H26.796ZM22.7592 36.0944H19.7066V39.147H22.7592V36.0944ZM6.264 20.7824V17.7298H3.21137V20.7824H6.264ZM10.3008 20.7824H13.3534V17.7298H10.3008V20.7824ZM15.66 32.8928L16.2587 35.8861L18.7126 35.3954V32.8928H15.66ZM15.66 20.7824V17.7298H12.6074V20.7824H15.66ZM19.6968 20.7824H22.7494V17.7298H19.6968V20.7824ZM19.6968 35.5376L20.574 38.4615L22.7494 37.8089V35.5376H19.6968ZM51.2961 23.4263C49.6746 21.8047 47.3991 20.9314 44.8224 20.9314V27.0366C46.0041 27.0366 46.6518 27.4161 46.9791 27.7433L51.2961 23.4263ZM44.8224 20.9314C42.7621 20.9314 40.8546 21.6627 39.4958 23.1913C38.1802 24.6714 37.6634 26.5768 37.6634 28.4384H43.7686C43.7686 27.6552 43.9826 27.3334 44.059 27.2475C44.0977 27.2039 44.1468 27.1642 44.234 27.128C44.3272 27.0894 44.5104 27.0366 44.8224 27.0366V20.9314ZM37.6634 28.4384C37.6634 30.4231 38.2836 32.3449 39.6655 33.7919C41.0608 35.2528 42.9631 35.9454 44.9616 35.9454V29.8402C44.3849 29.8402 44.1644 29.6628 44.0807 29.5751C43.9836 29.4735 43.7686 29.1681 43.7686 28.4384H37.6634ZM44.9616 35.9454C47.731 35.9454 49.5411 35.0662 51.3172 33.7341L47.654 28.8499C46.6461 29.6058 46.0898 29.8402 44.9616 29.8402V35.9454ZM46.433 31.292V35.1896H52.5382V31.292H46.433ZM47.9835 32.5321C46.9904 33.0934 46.1003 33.2506 44.8224 33.2506V39.3558C46.7461 39.3558 48.7792 39.0954 50.9877 37.8471L47.9835 32.5321ZM44.8224 33.2506C42.9482 33.2506 41.6817 32.659 40.901 31.9019C40.1242 31.1486 39.5926 30.0056 39.5926 28.4384H33.4874C33.4874 31.4648 34.5567 34.2542 36.6508 36.2849C38.7411 38.3118 41.6159 39.3558 44.8224 39.3558V33.2506ZM39.5926 28.4384C39.5926 26.8615 40.1421 25.6959 40.9468 24.9201C41.7587 24.1374 43.0358 23.5566 44.8224 23.5566V17.4514C41.6674 17.4514 38.8033 18.5062 36.7094 20.5248C34.6083 22.5505 33.4874 25.3521 33.4874 28.4384H39.5926ZM44.8224 23.5566C46.0855 23.5566 46.9914 23.7781 47.6551 24.1469L50.6201 18.8099C48.7782 17.7866 46.7609 17.4514 44.8224 17.4514V23.5566ZM46.085 21.4784V25.5848H52.1902V21.4784H46.085ZM31.7376 23.835H36.3312V17.7298H31.7376V23.835ZM33.8171 19.051L28.7363 26.4286L33.7645 29.8914L38.8453 22.5138L33.8171 19.051ZM28.731 29.8838L34.1598 37.8182L39.1986 34.3706L33.7698 26.4362L28.731 29.8838ZM36.6792 33.0418H32.016V39.147H36.6792V33.0418ZM34.5416 34.3798L29.3912 26.7934L24.34 30.2226L29.4904 37.809L34.5416 34.3798ZM29.4477 30.1363L34.3197 22.4107L29.1555 19.1541L24.2835 26.8797L29.4477 30.1363ZM22.7592 23.835H26.796V17.7298H22.7592V23.835ZM23.7434 20.7824V36.0944H29.8486V20.7824H23.7434ZM26.796 33.0418H22.7592V39.147H26.796V33.0418ZM25.8118 36.0944V20.7824H19.7066V36.0944H25.8118ZM6.264 23.835H10.3008V17.7298H6.264V23.835ZM7.24817 20.7824V29.7608H13.3534V20.7824H7.24817ZM7.24817 29.7608C7.24817 31.346 7.56378 33.1105 8.81736 34.4537C10.1215 35.8509 11.834 36.1542 13.1544 36.1542V30.049C12.9226 30.049 12.8637 30.0204 12.9104 30.036C12.939 30.0455 12.9961 30.068 13.0682 30.1129C13.1419 30.1587 13.2154 30.218 13.2806 30.2879C13.4183 30.4354 13.4393 30.5415 13.4217 30.4817C13.3997 30.4063 13.3534 30.1891 13.3534 29.7608H7.24817ZM13.1544 36.1542C14.4172 36.1542 15.3205 36.0738 16.2587 35.8861L15.0613 29.8994C14.6075 29.9902 14.1189 30.049 13.1544 30.049V36.1542ZM18.7126 32.8928V20.7824H12.6074V32.8928H18.7126ZM15.66 23.835H19.6968V17.7298H15.66V23.835ZM16.6442 20.7824V35.5376H22.7494V20.7824H16.6442ZM18.8196 32.6137C17.8218 32.9131 15.0173 33.2506 13.1544 33.2506V39.3558C15.3283 39.3558 18.7878 38.9973 20.574 38.4615L18.8196 32.6137ZM13.1544 33.2506C11.6549 33.2506 10.649 32.9488 10.1003 32.5654C9.73123 32.3076 9.31663 31.8632 9.31663 30.596H3.21137C3.21137 33.6439 4.43237 36.0532 6.60373 37.5702C8.59538 38.9616 11.0347 39.3558 13.1544 39.3558V33.2506ZM9.31663 30.596V20.7824H3.21137V30.596H9.31663ZM58.7326 28.16C58.7326 11.0925 44.9075 -2.73264 27.84 -2.73264V3.37263C41.5357 3.37263 52.6274 14.4643 52.6274 28.16H58.7326ZM27.84 -2.73264C10.7725 -2.73264 -3.05263 11.0925 -3.05263 28.16H3.05263C3.05263 14.4643 14.1443 3.37263 27.84 3.37263V-2.73264ZM-3.05263 28.16C-3.05263 45.2275 10.7725 59.0526 27.84 59.0526V52.9474C14.1443 52.9474 3.05263 41.8557 3.05263 28.16H-3.05263ZM27.84 59.0526C44.9075 59.0526 58.7326 45.2275 58.7326 28.16H52.6274C52.6274 41.8557 41.5357 52.9474 27.84 52.9474V59.0526Z" fill="black"/>
</svg>
