<?xml version="1.0" encoding="utf-8"?>
<!-- Generator: Adobe Illustrator 27.2.0, SVG Export Plug-In . SVG Version: 6.00 Build 0)  -->
<svg version="1.1" id="viaFerrataSettingIcon" xmlns="http://www.w3.org/2000/svg" xmlns:xlink="http://www.w3.org/1999/xlink"
	 x="0px" y="0px" viewBox="0 0 90 90" style="enable-background:new 0 0 90 90;" xml:space="preserve">
<g id="viaFerrataSettingIcon-group3">
</g>
<path d="M87,71.5c-3.1-1.7-9.2-3-12-4.3c-6.6-3.2-9.7-7.7-14.2-12.6c-4.5-5.1-12.1-3.7-14.2-3.9c-2.1-0.2-8.9,2.1-8.7,3.3
	c0.2,1.1-4.6,2.7-6.1,3.9c-1.6,1.2-5.5,4.2-7.9,4.3c-2.4,0.1-3.2,1.2-3.8,2.8c-0.6,1.7-3,4.2-5.9,3.9c-3-0.3-9.7-9.1-9.9-11.5
	c-0.1-2.4,13.2-6.2,16.7-7.3c3.4-1.1,8.4-4.5,9-4.9c0.6-0.4,2.2,3.4,2.2,3.4s3.5-0.8,4.1,0.3c0,0,9.3-1.5,11.6-1.9
	c2.4-0.4,5,1,9.8,1.7c5,0.6,10,8,12.2,10.4c2.1,2.3,7.3,4.3,7.3,4.3l10,3.7c0,0-1.8-4.2-2.7-6.1c-0.1-0.1-1.5-4.5-2-8.7
	c-0.9-7.5,1.7-11.7-1.8-17.4c-3.4-5.7-11.1-6.1-13-6.6c-2.1-0.5-9.2,0.2-9.2,1.4c0,1.2-5,1.9-6.7,2.7c-1.9,0.9-6.3,3-8.6,2.7
	c-2.4-0.3-3.4,0.5-4.4,2c-0.9,1.5-3.7,3.5-6.6,2.7c-2.9-0.8-7.7-11-7.3-13.2c0.3-2.4,14.2-3.6,17.7-3.9c3.6-0.3,9.2-2.7,9.9-2.9
	c0.6-0.2,1.3,3.7,1.3,3.7s3.6-0.2,3.9,1.1c0,0,9.5,0.5,11.9,0.5c2.3,0,4.6,1.9,9.3,3.5c4.6,1.7,7.2,7.1,7.5,11.3
	c0.3,8.6,0.9,15.4,3.2,23.8c0.1,0.2,0.1,0.4,0.2,0.7V18C90,8,81.9,0,72,0H18C8.1,0,0,8,0,18v54c0,9.9,8.1,18,18,18h54
	c9,0,16.4-6.6,17.8-15.2C89.2,73.7,88.7,72.4,87,71.5z"/>
</svg>
