<?xml version="1.0" encoding="UTF-8"?>
<!DOCTYPE svg PUBLIC "-//W3C//DTD SVG 1.1//EN" "http://www.w3.org/Graphics/SVG/1.1/DTD/svg11.dtd">
<svg version="1.1" xmlns="http://www.w3.org/2000/svg" xmlns:xlink="http://www.w3.org/1999/xlink" width="90" height="90"  xml:space="preserve" id="viaFerrataSettingIcon">
    <!-- Generated by PaintCode - http://www.paintcodeapp.com -->
    <g id="viaFerrataSettingIcon-group">
        <rect id="viaFerrataSettingIcon-rectangle2" stroke="none" fill="#D9D9D9FF" x="0" y="-0.04" width="90" height="90" rx="18" />
    </g>
    <g id="viaFerrataSettingIcon-group2" clip-path="url(#viaFerrataSettingIcon-rectangle)">
        <clipPath id="viaFerrataSettingIcon-rectangle">
            <rect x="0" y="-92.67" width="92.67" height="92.67"  transform="translate(1.66, 83.98)" />
        </clipPath>
        <g id="viaFerrataSettingIcon-group3">
        </g>
        <path id="viaFerrataSettingIcon-text" stroke="none" fill="#282630FF" d="M 4.3,57.47 C 4.51,59.85 11.24,68.65 14.24,68.96 17.14,69.27 19.52,66.69 20.14,65.03 20.76,63.48 21.59,62.34 23.97,62.23 26.35,62.13 30.29,59.13 31.84,57.89 33.39,56.64 38.16,55.09 37.95,53.95 37.74,52.71 44.57,50.43 46.65,50.64 48.72,50.85 56.38,49.5 60.83,54.57 65.28,59.54 68.39,63.99 75.01,67.2 77.81,68.55 83.92,69.9 87.02,71.55 90.02,73.11 89.19,75.73 91.8,76.94 94.42,78.14 101.56,82.17 101.56,82.17 101.56,82.17 102.76,86.99 106.08,87.19 109.4,87.39 115.83,88.9 117.44,88.4 118.95,87.9 122.67,77.94 121.26,76.74 119.86,75.53 113.72,73.62 110.1,74.12 106.48,74.63 102.96,75.23 102.46,76.64 101.96,77.94 97.43,74.63 94.92,73.42 92.51,72.21 90.85,67.62 89.82,63.79 87.54,55.4 86.92,48.57 86.61,39.98 86.4,35.83 83.71,30.35 79.15,28.69 74.49,27.03 72.11,25.17 69.84,25.17 67.45,25.17 57.93,24.65 57.93,24.65 57.62,23.31 54,23.51 54,23.51 54,23.51 53.27,19.58 52.65,19.79 51.93,19.99 46.33,22.38 42.71,22.69 39.19,23 25.32,24.24 25.01,26.62 24.7,28.9 29.46,39.04 32.36,39.87 35.26,40.7 38.05,38.63 38.98,37.18 39.92,35.73 40.95,34.9 43.33,35.21 45.61,35.52 50.06,33.45 51.93,32.52 53.69,31.69 58.65,31.07 58.65,29.83 58.65,28.59 65.8,27.86 67.87,28.38 69.84,28.9 77.5,29.31 80.91,35.01 84.33,40.7 81.74,44.94 82.67,52.4 83.19,56.64 84.54,60.99 84.64,61.1 85.57,62.96 87.33,67.2 87.33,67.2 L 77.29,63.48 C 77.29,63.48 72.01,61.41 69.94,59.13 67.77,56.75 62.69,49.4 57.72,48.78 52.86,48.15 50.27,46.7 47.89,47.12 45.61,47.53 36.29,48.98 36.29,48.98 35.67,47.84 32.15,48.67 32.15,48.67 32.15,48.67 30.6,44.84 29.98,45.26 29.36,45.67 24.39,48.98 20.97,50.12 17.45,51.26 4.2,55.09 4.3,57.47 Z M 4.3,57.47" />
    </g>
</svg>
