<?xml version="1.0" encoding="UTF-8"?>
<!DOCTYPE svg PUBLIC "-//W3C//DTD SVG 1.1//EN" "http://www.w3.org/Graphics/SVG/1.1/DTD/svg11.dtd">
<svg version="1.1" xmlns="http://www.w3.org/2000/svg" xmlns:xlink="http://www.w3.org/1999/xlink" width="90" height="90"  xml:space="preserve" id="winterRoutesSettingIcon">
    <!-- Generated by PaintCode - http://www.paintcodeapp.com -->
    <g id="winterRoutesSettingIcon-group">
        <rect id="winterRoutesSettingIcon-rectangle2" stroke="none" fill="#D9D9D9FF" x="0" y="0" width="90" height="90" rx="18" />
    </g>
    <g id="winterRoutesSettingIcon-group2" clip-path="url(#winterRoutesSettingIcon-rectangle)">
        <clipPath id="winterRoutesSettingIcon-rectangle">
            <rect x="0" y="-92.67" width="92.67" height="92.67"  transform="translate(2.88, 90.05)" />
        </clipPath>
        <g id="winterRoutesSettingIcon-group3" clip-path="url(#winterRoutesSettingIcon-clip)">
            <clipPath id="winterRoutesSettingIcon-clip">
                <rect x="2.6" y="-1.72" width="93.3" height="92.15" />
            </clipPath>
            <path id="winterRoutesSettingIcon-bezier" stroke="none" fill="#282630FF" d="M 41.62,168.27 C 43.49,166.35 44.77,164.04 45.94,161.65 46.64,160.78 46.55,159.6 47.08,158.66 47.48,158.34 47.14,157.85 47.35,157.48 48.71,154.95 48.94,152.16 49.23,149.37 49.68,147.7 49.78,145.97 49.91,144.25 49.99,143.86 50.11,143.46 50.16,143.07 51.35,134.81 52.77,126.59 54.64,118.45 55.03,117.25 55.41,116.04 55.24,114.74 55.69,113.82 55.6,112.78 55.85,111.8 56.74,108.29 57.64,104.77 58.15,101.17 58.4,100.5 58.46,99.81 58.27,99.11 58.66,98.62 58.78,98.01 58.89,97.42 59.62,93.7 60.59,90.03 61.08,86.26 61.44,84.81 61.63,83.34 61.71,81.85 62.2,78.91 62.79,75.99 62.93,73.01 63.54,69.99 63.7,66.94 63.89,63.89 64.05,61.13 64.26,58.35 64.04,55.58 64.21,53.01 64.24,50.43 64,47.86 63.85,45.56 64.31,43.24 63.79,40.96 63.52,38.85 63.95,36.68 63.34,34.58 63.23,32.74 63,29.06 63,29.06 L 64.48,28.09 C 64.48,28.09 67.12,24.81 69.15,23.98 70.39,23.62 71.68,23.56 72.96,23.55 73.59,23.65 74.22,23.75 74.85,23.85 76.14,24.7 77.62,25.14 79.04,25.69 79.37,25.81 79.72,25.93 80.05,26.04 81.15,26.38 82.17,27.04 83.39,26.94 L 83.39,26.93 C 84.47,26.45 85.31,25.62 86.1,24.78 86.84,24 86.72,23.65 85.68,23.46 83.18,22.99 80.69,22.56 78.2,22.11 76.2,21.5 74.18,21.05 72.12,20.75 71.77,20.64 71.44,20.5 71.07,20.58 70.67,20.5 70.27,20.42 69.88,20.35 69.04,20.16 67.37,19.79 67.37,19.79 67.37,19.79 66.15,19.62 65.54,19.65 65.54,19.65 61.61,18.79 59.58,18.82 59.26,18.76 58.96,18.66 58.64,18.63 52.51,17.99 46.4,18.21 40.33,19.26 36.65,19.89 32.99,20.7 29.49,22.07 25.66,23.23 22.03,24.88 18.56,26.86 16.65,27.74 14.97,28.99 13.16,30.06 11.8,30.61 12.07,31.92 11.83,32.98 11.62,33.92 12,34.09 12.77,33.56 13.72,33.27 14.5,32.74 15.1,31.93 16.38,31.76 17.51,31.1 18.73,30.75 20.05,30.37 21.34,29.87 22.64,29.43 23.39,28.54 24.78,29.32 25.5,28.34 27.01,29.19 28.33,27.87 29.77,28 30.04,28.12 30.46,28.23 30.56,28.03 31.07,27.08 31.86,27.56 32.56,27.55 32.89,27.55 33.36,27.83 33.54,27.41 33.85,26.73 34.35,27.08 34.79,27.04 35.36,27.01 36.27,27.79 36.36,26.43 36.37,26.25 36.7,26.35 36.9,26.38 40.06,26.88 43.14,26.44 46.2,25.66 48.07,25.19 49.83,25.88 50.98,27.39 51.41,27.96 51.63,28.71 52.34,29.05 52.7,29.07 53.06,29.1 53.42,29.13 53.49,29.48 53.62,29.83 53.65,30.18 53.95,34.27 54.25,38.36 54.52,42.45 54.85,47.7 54.82,52.97 54.81,58.24 54.56,61.65 54.31,65.07 54.08,68.49 53.83,72.19 53.02,75.83 52.89,79.55 52.45,80.89 52.56,82.3 52.3,83.66 51.7,86.42 51.1,89.16 50.53,91.92 50.34,92.82 49.97,93.7 50.07,94.65 49.81,96.07 49.54,97.49 49.28,98.91 L 49.28,98.91 C 47.78,104.11 47.1,109.49 45.83,114.74 45.67,115.43 45.37,116.12 45.45,116.87 45.33,117.28 45.16,117.7 45.08,118.13 44.31,122.03 43.66,125.96 42.75,129.82 41.77,133.94 41.24,138.12 40.75,142.31 40.33,142.74 40.24,143.3 40.22,143.87 40.16,145.28 39.73,146.67 39.27,147.95 38.28,150.69 37.99,153.55 37.28,156.34 37.13,157.37 36.97,158.4 36.84,159.44 36.38,163.31 37.41,167.01 38.19,170.75 38.34,171.48 38.61,171.31 39.07,170.98 40.09,170.23 40.75,169.16 41.62,168.27 Z M 39.89,23.07 C 39.55,22.85 39.61,22.47 39.89,22.25 40.53,21.74 41.24,21.86 41.87,22.28 42.18,22.49 42.18,22.81 41.9,23.1 41.23,23.53 40.53,23.49 39.89,23.07 Z M 44.6,130.19 C 44.59,130.18 44.6,130.18 44.6,130.17 44.6,130.17 44.6,130.17 44.6,130.18 44.6,130.18 44.6,130.18 44.6,130.19 Z M 58.01,55.19 C 58.01,55.2 58,55.2 57.99,55.2 57.99,55.2 58,55.19 58,55.18 58.01,55.19 58.01,55.19 58.01,55.19 Z M 38.72,155.72 C 38.72,155.72 38.72,155.72 38.71,155.71 38.72,155.71 38.72,155.71 38.72,155.71 L 38.72,155.72 Z M 45.1,127.47 L 45.11,127.47 C 45.1,127.47 45.1,127.48 45.1,127.48 L 45.1,127.48 C 45.1,127.48 45.1,127.48 45.09,127.48 45.1,127.48 45.1,127.48 45.1,127.48 L 45.1,127.47 Z M 44.6,130.19 C 44.6,130.19 44.6,130.19 44.6,130.2 44.59,130.2 44.59,130.2 44.58,130.19 44.59,130.19 44.59,130.19 44.6,130.19 Z M 43.23,138.16 L 43.22,138.17 43.22,138.16 C 43.22,138.16 43.22,138.16 43.23,138.16 Z M 37.89,155.61 C 37.85,155.63 37.8,155.64 37.75,155.68 L 37.75,155.68 C 37.79,155.63 37.85,155.61 37.89,155.61 Z M 43.75,22.86 C 43.25,22.37 43.28,21.99 43.66,21.62 44.3,21.03 45.96,21.14 46.58,21.8 46.92,22.17 46.88,22.52 46.55,22.86 45.97,23.46 44.27,23.4 43.75,22.86 Z M 48.3,22.28 C 47.95,21.8 48.18,21.32 48.77,20.94 49.73,20.32 51.5,20.47 52.4,21.2 53.06,21.73 53.03,22.28 52.43,22.81 51.51,23.6 49.22,23.37 48.3,22.28 Z M 54.43,22.55 C 53.93,21.8 54.24,21.17 54.92,20.7 56.32,19.73 58.98,20.01 60.2,21.2 60.87,21.86 60.65,22.49 60.23,23.04 58.81,24.37 55.41,24.06 54.43,22.55 Z M 39.57,166.25 C 38.63,165.88 38.28,165.16 38.2,164.18 38.12,163.06 38.36,161.93 38.03,160.83 38.63,159.17 39.97,158.66 41.42,159.52 41.8,159.75 42.18,159.98 42.56,160.2 44.13,161.14 44.31,161.73 43.49,163.42 43.14,164.03 42.67,164.56 42.29,165.15 41.65,166.15 40.78,166.63 39.57,166.25 Z M 39.57,166.25" />
        </g>
    </g>
</svg>
