<?xml version="1.0" encoding="utf-8"?>
<!-- Generator: Adobe Illustrator 27.2.0, SVG Export Plug-In . SVG Version: 6.00 Build 0)  -->
<svg version="1.1" id="winterRoutesSettingIcon" xmlns="http://www.w3.org/2000/svg" xmlns:xlink="http://www.w3.org/1999/xlink"
	 x="0px" y="0px" viewBox="0 0 90 90" style="enable-background:new 0 0 90 90;" xml:space="preserve">
<g>
	<path d="M58,55.2C58,55.2,58,55.2,58,55.2C58,55.2,58,55.2,58,55.2C58,55.2,58,55.2,58,55.2z"/>
	<path d="M60.2,23c0.4-0.5,0.6-1.2,0-1.8c-1.2-1.2-3.9-1.5-5.3-0.5c-0.7,0.5-1,1.1-0.5,1.8C55.4,24.1,58.8,24.4,60.2,23z"/>
	<path d="M72,0H18C8.1,0,0,8.1,0,18v54c0,9.9,8.1,18,18,18h32.9c0.4-2.1,0.9-4.2,1.4-6.3c0.3-1.4,0.2-2.8,0.6-4.1
		c0.1-3.7,0.9-7.4,1.2-11.1c0.2-3.4,0.5-6.8,0.7-10.2c0-5.3,0-10.5-0.3-15.8c-0.3-4.1-0.6-8.2-0.9-12.3c0-0.4-0.2-0.7-0.2-1
		c-0.4,0-0.7-0.1-1.1-0.1c-0.7-0.3-0.9-1.1-1.4-1.7c-1.1-1.5-2.9-2.2-4.8-1.7c-3.1,0.8-6.1,1.2-9.3,0.7c-0.2,0-0.5-0.1-0.5,0
		c-0.1,1.4-1,0.6-1.6,0.6c-0.4,0-0.9-0.3-1.2,0.4c-0.2,0.4-0.6,0.1-1,0.1c-0.7,0-1.5-0.5-2,0.5c-0.1,0.2-0.5,0.1-0.8,0
		c-1.4-0.1-2.8,1.2-4.3,0.3c-0.7,1-2.1,0.2-2.9,1.1c-1.3,0.4-2.6,0.9-3.9,1.3c-1.2,0.3-2.3,1-3.6,1.2c-0.6,0.8-1.4,1.3-2.3,1.6
		c-0.8,0.5-1.2,0.4-0.9-0.6c0.2-1.1,0-2.4,1.3-2.9c1.8-1.1,3.5-2.3,5.4-3.2c3.5-2,7.1-3.6,10.9-4.8c3.5-1.4,7.2-2.2,10.8-2.8
		c6.1-1.1,12.2-1.3,18.3-0.6c0.3,0,0.6,0.1,0.9,0.2c2,0,6,0.8,6,0.8c0.6,0,1.8,0.1,1.8,0.1s1.7,0.4,2.5,0.6c0.4,0.1,0.8,0.2,1.2,0.2
		c0.4-0.1,0.7,0.1,1,0.2c2.1,0.3,4.1,0.8,6.1,1.4c2.5,0.5,5,0.9,7.5,1.3c1,0.2,1.2,0.5,0.4,1.3c-0.8,0.8-1.6,1.7-2.7,2.2v0
		C82.2,27,81.2,26.4,80,26c-0.3-0.1-0.7-0.2-1-0.3c-1.4-0.5-2.9-1-4.2-1.8c-0.6-0.1-1.3-0.2-1.9-0.3c-1.3,0-2.6,0.1-3.8,0.4
		c-2,0.8-4.7,4.1-4.7,4.1l-1.5,1c0,0,0.2,3.7,0.3,5.5c0.6,2.1,0.2,4.3,0.4,6.4c0.5,2.3,0.1,4.6,0.2,6.9c0.2,2.6,0.2,5.2,0,7.7
		c0.2,2.8,0,5.5-0.1,8.3c-0.2,3-0.4,6.1-1,9.1c-0.1,3-0.7,5.9-1.2,8.8c-0.1,1.5-0.3,3-0.6,4.4c-0.2,1.3-0.4,2.5-0.6,3.7H72
		c9.9,0,18-8.1,18-18V18C90,8.1,81.9,0,72,0z"/>
	<path d="M43.7,21.6c-0.4,0.4-0.4,0.8,0.1,1.2c0.5,0.5,2.2,0.6,2.8,0c0.3-0.3,0.4-0.7,0-1.1C46,21.1,44.3,21,43.7,21.6z"/>
	<path d="M39.9,22.2c-0.3,0.2-0.3,0.6,0,0.8c0.6,0.4,1.3,0.5,2,0c0.3-0.3,0.3-0.6,0-0.8C41.2,21.9,40.5,21.7,39.9,22.2z"/>
	<path d="M48.8,20.9c-0.6,0.4-0.8,0.9-0.5,1.3c0.9,1.1,3.2,1.3,4.1,0.5c0.6-0.5,0.6-1.1,0-1.6C51.5,20.5,49.7,20.3,48.8,20.9z"/>
</g>
</svg>
